{
  "accessors": [
    {
      "bufferView": 2,
      "componentType": 5126,
      "count": 15201,
      "max": [
        2.2713510990142822,
        3.0792889595031738,
        1.6690189838409424
      ],
      "min": [
        -0.29587998986244202,
        -2.9170670509338379,
        -0.75076299905776978
      ],
      "type": "VEC3"
    },
    {
      "bufferView": 2,
      "byteOffset": 182412,
      "componentType": 5126,
      "count": 15201,
      "max": [
        0.99993860721588135,
        0.99993389844894409,
        0.9998704195022583
      ],
      "min": [
        -0.999991774559021,
        -0.99987554550170898,
        -1
      ],
      "type": "VEC3"
    },
    {
      "bufferView": 3,
      "componentType": 5126,
      "count": 15201,
      "max": [
        0.99995636940002441,
        0.99928426742553711,
        0.99943596124649048,
        1
      ],
      "min": [
        -0.999431312084198,
        -0.98775672912597656,
        -0.99981307983398438,
        -1
      ],
      "type": "VEC4"
    },
    {
      "bufferView": 1,
      "componentType": 5126,
      "count": 15201,
      "max": [
        0.99709397554397583,
        0.99804699420928955
      ],
      "min": [
        0.0019529999699443579,
        0.0019529999699443579
      ],
      "type": "VEC2"
    },
    {
      "bufferView": 0,
      "componentType": 5125,
      "count": 86658,
      "max": [
        15200
      ],
      "min": [
        0
      ],
      "type": "SCALAR"
    },
    {
      "bufferView": 2,
      "byteOffset": 364824,
      "componentType": 5126,
      "count": 15125,
      "max": [
        -0.33193999528884888,
        3.1056849956512451,
        1.6690189838409424
      ],
      "min": [
        -2.5991330146789551,
        -2.9413259029388428,
        -0.75076299905776978
      ],
      "type": "VEC3"
    },
    {
      "bufferView": 2,
      "byteOffset": 546324,
      "componentType": 5126,
      "count": 15125,
      "max": [
        0.9999314546585083,
        0.99899500608444214,
        0.99986612796783447
      ],
      "min": [
        -0.99977147579193115,
        -0.99991333484649658,
        -1
      ],
      "type": "VEC3"
    },
    {
      "bufferView": 3,
      "byteOffset": 243216,
      "componentType": 5126,
      "count": 15125,
      "max": [
        0.99926489591598511,
        0.99876517057418823,
        0.99969702959060669,
        1
      ],
      "min": [
        -0.99999552965164185,
        -0.99302303791046143,
        -0.99994415044784546,
        -1
      ],
      "type": "VEC4"
    },
    {
      "bufferView": 1,
      "byteOffset": 121608,
      "componentType": 5126,
      "count": 15125,
      "max": [
        0.99709397554397583,
        0.99804699420928955
      ],
      "min": [
        0.0019529999699443579,
        0.0019529999699443579
      ],
      "type": "VEC2"
    },
    {
      "bufferView": 0,
      "byteOffset": 346632,
      "componentType": 5125,
      "count": 86658,
      "max": [
        15124
      ],
      "min": [
        0
      ],
      "type": "SCALAR"
    }
  ],
  "asset": {
    "generator": "Sketchfab (OSG glTF plugin)",
    "version": "2.0"
  },
  "bufferViews": [
    {
      "buffer": 0,
      "byteLength": 693264,
      "byteOffset": 0,
      "name": "floatBufferViews",
      "target": 34963
    },
    {
      "buffer": 0,
      "byteLength": 242608,
      "byteOffset": 693264,
      "byteStride": 8,
      "name": "floatBufferViews",
      "target": 34962
    },
    {
      "buffer": 0,
      "byteLength": 727824,
      "byteOffset": 935872,
      "byteStride": 12,
      "name": "floatBufferViews",
      "target": 34962
    },
    {
      "buffer": 0,
      "byteLength": 485216,
      "byteOffset": 1663696,
      "byteStride": 16,
      "name": "floatBufferViews",
      "target": 34962
    }
  ],
  "buffers": [
    {
      "byteLength": 2148912,
      "uri": "scene.bin"
    }
  ],
  "extensionsRequired": [
    "KHR_materials_pbrSpecularGlossiness"
  ],
  "extensionsUsed": [
    "KHR_materials_pbrSpecularGlossiness"
  ],
  "images": [
    {
      "uri": "textures/LR_Baked_01_emissive.jpeg"
    },
    {
      "uri": "textures/LR_Baked_01_diffuse.jpeg"
    },
    {
      "uri": "textures/LR_Baked_01_specularGlossiness.png"
    },
    {
      "uri": "textures/LR_Baked_01_normal.png"
    }
  ],
  "materials": [
    {
      "doubleSided": true,
      "emissiveFactor": [
        0,
        0,
        0
      ],
      "emissiveTexture": {
        "index": 0,
        "texCoord": 0
      },
      "extensions": {
        "KHR_materials_pbrSpecularGlossiness": {
          "diffuseFactor": [
            1,
            1,
            1,
            1
          ],
          "diffuseTexture": {
            "index": 1,
            "texCoord": 0
          },
          "glossinessFactor": 1,
          "specularFactor": [
            1,
            1,
            1
          ],
          "specularGlossinessTexture": {
            "index": 2,
            "texCoord": 0
          }
        }
      },
      "name": "LR_Baked_01",
      "normalTexture": {
        "index": 3,
        "scale": 1,
        "texCoord": 0
      }
    }
  ],
  "meshes": [
    {
      "primitives": [
        {
          "attributes": {
            "NORMAL": 1,
            "POSITION": 0,
            "TANGENT": 2,
            "TEXCOORD_0": 3
          },
          "indices": 4,
          "material": 0,
          "mode": 4
        }
      ]
    },
    {
      "primitives": [
        {
          "attributes": {
            "NORMAL": 6,
            "POSITION": 5,
            "TANGENT": 7,
            "TEXCOORD_0": 8
          },
          "indices": 9,
          "material": 0,
          "mode": 4
        }
      ]
    }
  ],
  "nodes": [
    {
      "children": [
        1
      ],
      "name": "RootNode (gltf orientation matrix)",
      "rotation": [
        -0.70710678118654746,
        -0,
        -0,
        0.70710678118654757
      ]
    },
    {
      "children": [
        2
      ],
      "name": "RootNode (model correction matrix)"
    },
    {
      "children": [
        5
      ],
      "name": "Shoes Viola A1.obj.cleaner.materialmerger.gles"
    },
    {
      "mesh": 0,
      "name": ""
    },
    {
      "mesh": 1,
      "name": ""
    },
    {
      "children": [
        3,
        4
      ],
      "name": "Geode"
    }
  ],
  "samplers": [
    {
      "magFilter": 9729,
      "minFilter": 9987,
      "wrapS": 10497,
      "wrapT": 10497
    }
  ],
  "scene": 0,
  "scenes": [
    {
      "name": "OSG_Scene",
      "nodes": [
        0
      ]
    }
  ],
  "textures": [
    {
      "sampler": 0,
      "source": 0
    },
    {
      "sampler": 0,
      "source": 1
    },
    {
      "sampler": 0,
      "source": 2
    },
    {
      "sampler": 0,
      "source": 3
    }
  ]
}

